<svg id="Layer_1" data-name="Layer 1" xmlns="http://www.w3.org/2000/svg" viewBox="0 0 511.41 507.11"><defs><style>.cls-1{fill:#fff;}</style></defs><title>MO-white</title><path class="cls-1" d="M122.55,307l16.9-30.29q36.07-65,72-130.1c1.75-3.18,3.56-4.39,7.25-4.34,17.33.23,34.66.18,52,0,3.48,0,4,.72,3.19,4.15q-24.74,106.44-49.14,212.94c-.69,3-2,3.64-4.74,3.61-10.66-.11-21.33-.21-32,0-3.78.09-4.33-.89-3.47-4.42q17.41-72,34.59-144.07c2.28-9.52,4.52-19,7-29.58-2.66,2.05-3.35,4.23-4.35,6.08q-45.17,83.65-90.27,167.38c-1.78,3.31-3.61,4.88-7.61,4.72-9-.36-18-.22-27-.06-3,.06-4-1-4.19-4q-4.5-63.76-9.19-127.51l-3.08-42.34c-.1-1.31-.05-2.67-1.52-3.93-3.79,17.23-7.53,34.23-11.26,51.24Q54.25,297.59,40.94,358.77c-.72,3.36-2,4.25-5.24,4.2-10.66-.18-21.33-.14-32,0-3.11,0-4.33-.22-3.43-4.07Q25.06,252.49,49.44,146c.67-2.91,1.78-3.7,4.62-3.68,17.5.12,35,.16,52.49,0,3.47,0,4.51,1,4.71,4.4,1.27,21.27,2.78,42.52,4.16,63.78q3.12,48.08,6.18,96.17Z" transform="translate(0.02)"/><path class="cls-1" d="M373.41,367.49c-24.44-.11-45.8-5.21-63.58-20.65-17-14.73-25.48-34.11-27.87-55.91-4.35-39.86,3.87-77,27.86-109.62,24.26-32.94,58.14-45.81,98.25-43.41,19.93,1.2,38.1,7.56,53.53,20.67,16,13.59,24.77,31.37,27.67,51.68,5.88,41.12-2.58,79.3-27.26,113C439.89,353.48,409.08,367.25,373.41,367.49Zm76.28-136.58a76.74,76.74,0,0,0-1.19-15c-3.39-22.32-18.06-38.1-39.42-41.36-22.86-3.49-43,3-58.07,20.55-23.24,27-31.46,59-26.11,94,2.75,18,12.28,31.88,30.53,38,23.75,8,51.46.55,67.77-18.49C442.35,286.31,448.32,259.31,449.69,230.91Z" transform="translate(0.02)"/><path class="cls-1" d="M510.5,161.66l-14.89-22.35c-11.22-16.94-22.52-33.82-33.55-50.88-2.07-3.2-3.78-3.91-7.52-2.75-35.93,11.08-71.93,21.9-107.87,32.78-1.21.37-2.36,1.3-4.36.26L498.7,0l12.69,161.44Z" transform="translate(0.02)"/><path class="cls-1" d="M426.7,389.41c-9.72,8.61-20.4,16-30.7,23.84Q336,459,275.84,504.47c-.66.5-1.37,1-2,1.49-1.93,1.66-3,1.77-3.24-1.29-.92-12.61-2-25.22-3-37.82l-7.68-97.53a161,161,0,0,1-.58-22.41l12.35,18.5c12,18.17,24.17,36.31,36.06,54.59,2,3.14,3.87,3.5,7.29,2.45q53.64-16.47,107.38-32.6c1.26-.38,2.59-.54,3.88-.8Z" transform="translate(0.02)"/><path class="cls-1" d="M426.35,389a13.21,13.21,0,0,1,1.22-.53c.08,0,.25.19.37.29l-1.24.61Z" transform="translate(0.02)"/></svg>