<svg id="Layer_1" data-name="Layer 1" xmlns="http://www.w3.org/2000/svg" viewBox="0 0 1737.01 507.11"><defs><style>.cls-1{fill:#fff;}</style></defs><title>mo4all-horizontal-white</title><path class="cls-1" d="M174.94,342.64q8.45-15.15,16.9-30.29,36.07-65,72-130.1c1.75-3.18,3.56-4.39,7.25-4.34,17.33.23,34.66.18,52,0,3.48,0,4,.72,3.19,4.15Q301.54,288.5,277.14,395c-.69,3-2,3.64-4.74,3.61-10.66-.11-21.33-.21-32,0-3.78.09-4.33-.89-3.47-4.42q17.41-72,34.59-144.07c2.28-9.52,4.52-19,7-29.58-2.66,2.05-3.35,4.23-4.35,6.08Q229,310.27,183.9,394c-1.78,3.31-3.61,4.88-7.61,4.72-9-.36-18-.22-27-.06-3,.06-4-1-4.19-4q-4.5-63.76-9.19-127.51-1.54-21.17-3.08-42.34c-.1-1.31-.05-2.67-1.52-3.93-3.79,17.23-7.53,34.23-11.26,51.24q-13.41,61.16-26.72,122.34c-.72,3.36-2,4.25-5.24,4.2-10.66-.18-21.33-.14-32,0-3.11,0-4.33-.22-3.43-4.07q24.79-106.41,49.17-212.92c.67-2.91,1.78-3.7,4.62-3.68,17.5.12,35,.16,52.49,0,3.47,0,4.51,1,4.71,4.4,1.27,21.27,2.78,42.52,4.16,63.78q3.12,48.08,6.18,96.17Z" transform="translate(-52.39 -35.69)"/><path class="cls-1" d="M425.8,403.18c-24.44-.11-45.8-5.21-63.58-20.65-17-14.73-25.48-34.11-27.87-55.91C330,286.76,338.22,249.57,362.21,217c24.26-32.94,58.14-45.81,98.25-43.41,19.93,1.2,38.1,7.56,53.53,20.67,16,13.59,24.77,31.37,27.67,51.68,5.88,41.12-2.58,79.3-27.26,113C492.28,389.17,461.47,402.94,425.8,403.18ZM502.08,266.6a76.74,76.74,0,0,0-1.19-15c-3.39-22.32-18.06-38.1-39.42-41.36-22.86-3.49-43,3-58.07,20.55-23.24,27-31.46,59-26.11,94,2.75,18,12.28,31.88,30.53,38,23.75,8,51.46.55,67.77-18.49C494.74,322,500.71,295,502.08,266.6Z" transform="translate(-52.39 -35.69)"/><path class="cls-1" d="M1420.76,401c6.88-12,13.38-23.36,19.89-34.71q52.15-90.87,104.25-181.76c1.68-2.94,3.45-4.24,7-4.18,12.49.23,25,.19,37.47,0,3.22,0,4.25,1,4.58,4.16q8,76.2,16.21,152.38,3.2,29.78,6.61,59.53c.38,3.23.21,4.76-3.78,4.66-11.32-.28-22.65-.21-34,0-3.05,0-3.87-.91-4.11-3.89-1.05-12.77-2.52-25.5-3.59-38.27-.25-3-1.24-3.83-4.2-3.81q-36.23.17-72.45,0c-2.86,0-4.43.82-5.79,3.44-6.71,13-13.77,25.81-20.46,38.82-1.43,2.78-3,3.75-6.1,3.71C1448.72,400.91,1435.13,401,1420.76,401Zm140.39-176-1-.39-50.44,96c19.15,0,37.4,0,55.66,0,2.43,0,2.72-1.24,2.56-3.15q-.52-6.21-1-12.42Q1564.07,265,1561.15,225Z" transform="translate(-52.39 -35.69)"/><path class="cls-1" d="M590,382.53c-1.16,5-2.21,9-3,13.06-.43,2.24-1.51,3-3.73,3-10.5-.07-21-.12-31.49,0-4.76.06-2.93-3-2.45-5q7.42-32.59,15-65.14Q581.21,255.5,598,182.56c.79-3.46,2-4.77,5.81-4.67,11,.3,22,.11,33.4.11l-17.26,74.68c11.46-9.72,24.07-13.62,38-13.84,31-.48,54.05,17.39,58.73,48,5.53,36.17-2.78,69.13-29.62,95.32C667.68,401,643.74,406,617.63,400.52,606.68,398.22,598.17,391.42,590,382.53Zm89.92-75.24c0-2.33.2-4.68,0-7-1.48-15-10.31-25.72-23.45-28.09-14.44-2.61-26.84,1.64-36.33,12.75-14,16.39-19.13,35.94-17.89,57.08.83,14.13,11.05,24.75,24.67,26.86,15.06,2.33,27.66-2.33,37.2-14.27C675.12,340.84,679.23,324.57,679.94,307.29Z" transform="translate(-52.39 -35.69)"/><path class="cls-1" d="M1277.63,351c-13.33,0-26.67-.11-40,.08-3.53.05-4.19-.93-3.33-4.21,2.27-8.69,4.47-17.4,6.29-26.19a24.82,24.82,0,0,1,6-11.7q51.23-58.42,102.25-117c1.73-2,3.37-3.24,6.25-3.2q19.49.25,39,0c3.53,0,4,.8,3.22,4.23-9.34,40-18.41,80.06-27.82,120-1.13,4.81,0,5.72,4.52,5.48,6.15-.32,12.33,0,18.49-.1,2.34,0,3.75,0,2.9,3.25-2.29,8.68-4.3,17.44-6.15,26.22-.53,2.5-1.51,3.21-3.94,3.16-6.66-.15-13.34.12-20-.12-3.36-.12-4.86.61-5.63,4.31-2.93,14-6.47,27.86-9.52,41.84-.66,3.05-1.74,4.06-4.88,4q-15-.31-30,0c-3.4.06-4.56-.27-3.57-4.23,3.46-13.87,6.32-27.9,9.74-41.78.9-3.65-.11-4.14-3.38-4.11C1304.63,351.08,1291.13,351,1277.63,351Zm73.26-118.16-73.59,85.71c17.67,0,34,0,50.25,0,3,0,2.91-2.19,3.37-4q9.74-38.42,19.43-76.85c.41-1.61,1-3.17.43-4.86H1353Z" transform="translate(-52.39 -35.69)"/><path class="cls-1" d="M1107,361.46l44.84-88c4.6-9,9.21-18.07,13.76-27.14.93-1.86,1.74-3.26,4.33-3.23,12.13.15,24.27.07,37.23.07-2.22,4.12-4.12,7.74-6.09,11.31q-45,81.46-90,162.9a118.63,118.63,0,0,1-14.07,20.57c-9.26,10.66-20.85,16.25-35,16.62-9.18.24-18.25-1-27.31-2.27-2.28-.33-3.28-.89-2.7-3.38q3.27-14.09,6.33-28.22c.48-2.21,1.59-2.26,3.58-1.92,6.56,1.12,13.17,2.17,19.81.43a20.94,20.94,0,0,0,15.6-22.27Q1071,327,1064.88,257.16c-.31-3.48-.55-7-1-10.44-.3-2.45.23-3.65,3.08-3.61q16,.2,32,0c2.5,0,3,1,3.06,3.23q1,33.44,2.13,66.87c.55,16,1.2,32.1,1.8,48.14Z" transform="translate(-52.39 -35.69)"/><path class="cls-1" d="M1036.28,243.16c3.33,0,6.67.14,10,0,3-.17,4.31.42,3.39,3.87-1.77,6.58-3.3,13.24-4.64,19.92-.56,2.79-2,3.35-4.49,3.3-7.16-.13-14.33,0-21.5-.09-2.53,0-3.74.54-4.38,3.34-5.65,25-11.71,49.87-17.23,74.88-3,13.52,2.67,19.7,16.63,19.74,3.29,0,7.81-2.43,9.57.6,1.24,2.14-.9,6.29-1.63,9.53-1.28,5.68-2.69,11.33-3.91,17-.42,1.95-.91,3.42-3.25,3.72-11.11,1.4-22.25,2.29-33.32,0-15.75-3.23-24.13-13.53-24-29.65.08-15.63,4.62-30.54,8-45.61,3.72-16.38,7.49-32.75,11.54-49.05,1-4,0-4.79-3.77-4.56-5.15.31-10.33,0-15.49.1-2.21,0-2.89-.51-2.28-2.89,1.82-7.09,3.47-14.22,5-21.38.49-2.29,1.6-2.87,3.79-2.81,5.16.14,10.34-.16,15.49.12,3.32.18,4.54-1,5.24-4.24,3.31-15.28,7-30.48,10.32-45.75.72-3.29,1.85-4.63,5.51-4.51,9.82.31,19.66.22,29.49,0,3.3-.06,3.81.7,3,4-3.72,15.36-6.94,30.83-10.72,46.17-1,4,.25,4.51,3.64,4.3S1033,243.16,1036.28,243.16Z" transform="translate(-52.39 -35.69)"/><path class="cls-1" d="M866.55,178c4.83,0,9.67.2,14.49-.07,3.58-.2,4.59.65,3.69,4.39-4.16,17.29-8.06,34.65-12.06,52q-18.36,79.47-36.65,159c-.94,4.13-2.51,5.59-6.85,5.42-9.48-.37-19-.2-28.48-.06-3.08,0-4.09-.6-3.31-4q24.68-106.16,49.1-212.38c.8-3.48,2.09-4.6,5.59-4.36C856.87,178.25,861.71,178,866.55,178Z" transform="translate(-52.39 -35.69)"/><path class="cls-1" d="M1654,401c-5,0-10-.16-15,.06-3.31.15-4.08-.46-3.24-4.06,10.36-44.19,20.5-88.42,30.71-132.64,6.13-26.56,12.35-53.1,18.33-79.69.73-3.23,1.87-4.38,5.21-4.3,9.66.21,19.32.26,29,0,4.19-.12,4.88,1,3.94,5q-15.87,67.73-31.43,135.53c-5.84,25.27-11.76,50.52-17.44,75.82-.77,3.45-2.07,4.62-5.58,4.38C1663.71,400.75,1658.86,401,1654,401Z" transform="translate(-52.39 -35.69)"/><path class="cls-1" d="M1701,401c4.78-20.81,9.44-41.21,14.15-61.59q17.86-77.27,35.68-154.55c.77-3.37,2-4.61,5.56-4.51,9.49.27,19,.39,28.48,0,4.69-.21,5,1.26,4.06,5.22q-15.31,65.57-30.39,131.2c-6.18,26.73-12.45,53.44-18.46,80.21-.75,3.34-2.07,4.19-5.28,4.13C1723.7,400.89,1712.56,401,1701,401Z" transform="translate(-52.39 -35.69)"/><path class="cls-1" d="M562.89,197.35Q555.45,186.18,548,175c-11.22-16.94-22.52-33.82-33.55-50.88-2.07-3.2-3.78-3.91-7.52-2.75C471,132.45,435,143.27,399.06,154.15c-1.21.37-2.36,1.3-4.36.26L551.09,35.69l12.69,161.44Z" transform="translate(-52.39 -35.69)"/><path class="cls-1" d="M479.09,425.1c-9.72,8.61-20.4,16-30.7,23.84q-60,45.73-120.16,91.22c-.66.5-1.37,1-2,1.49-1.93,1.66-3,1.77-3.24-1.29-.92-12.61-2-25.22-3-37.82q-3.84-48.77-7.68-97.53a161,161,0,0,1-.58-22.41q6.17,9.25,12.35,18.5c12.05,18.17,24.17,36.31,36.06,54.59,2,3.14,3.87,3.5,7.29,2.45q53.64-16.47,107.38-32.6c1.26-.38,2.59-.54,3.88-.8Z" transform="translate(-52.39 -35.69)"/><path class="cls-1" d="M888,398.56c-5,0-10-.15-15,.05-3.32.13-4.24-.53-3.38-4.16,7.4-31,14.57-62.13,21.81-93.21,4.19-18,8.47-35.91,12.52-53.91.71-3.15,1.87-4.34,5.22-4.26,9.82.23,19.65.26,29.47,0,3.81-.11,3.95,1.32,3.25,4.31Q928.68,304,915.6,360.55c-2.59,11.17-5.21,22.33-7.67,33.53-.69,3.14-1.7,4.91-5.49,4.58C897.65,398.24,892.8,398.56,888,398.56Z" transform="translate(-52.39 -35.69)"/><path class="cls-1" d="M743.38,398.56c-4.66,0-9.34-.2-14,.06-3.76.21-4.9-.58-3.92-4.69C735,354,744.24,314,753.58,274c2.12-9.07,4.39-18.1,6.27-27.22.61-3,1.86-3.72,4.67-3.68,10,.14,20,.18,30,0,3.38-.06,3.89,1,3.18,4.08q-17.13,73.58-34.06,147.21c-.7,3.07-1.83,4.49-5.25,4.26C753.39,398.32,748.38,398.56,743.38,398.56Z" transform="translate(-52.39 -35.69)"/><path class="cls-1" d="M766.93,216c2.73-12.18,5.43-23.94,8-35.74.43-2,1.44-2.28,3.1-2.27,10.8,0,21.6.1,32.4,0,2.82,0,2.93,1.17,2.43,3.31-2.53,10.65-5.07,21.29-7.48,32-.42,1.88-1,2.84-3.15,2.82C790.57,215.95,779,216,766.93,216Z" transform="translate(-52.39 -35.69)"/><path class="cls-1" d="M911.2,216c2.68-12.1,5.3-23.76,7.8-35.45.45-2.1,1.55-2.58,3.49-2.57,10.66.06,21.32.1,32,0,2.62,0,3.1.9,2.55,3.2-2.56,10.84-5.05,21.69-7.57,32.54-.32,1.37-.73,2.37-2.54,2.36C935.11,216,923.3,216,911.2,216Z" transform="translate(-52.39 -35.69)"/><path class="cls-1" d="M478.74,424.73c.4-.18.8-.39,1.22-.53.08,0,.25.19.37.29l-1.24.61Z" transform="translate(-52.39 -35.69)"/></svg>